<svg xmlns="http://www.w3.org/2000/svg" xmlns:xlink="http://www.w3.org/1999/xlink" width="1200" height="1200" viewBox="0 0 1200 1200"><g><g transform="translate(600 600) scale(0.69 0.69) rotate(0) translate(-600 -600)" style="fill:#FFFFFF;"><svg fill="#FFFFFF" xmlns="http://www.w3.org/2000/svg" xmlns:xlink="http://www.w3.org/1999/xlink" version="1.1" x="0px" y="0px" viewBox="0 0 96 96" enable-background="new 0 0 96 96" xml:space="preserve"><path d="M73.928,69.968c-1.436-1.676-3.964-1.868-5.644-0.428L51.828,83.645V4c0-2.208-1.788-4-4-4c-2.208,0-4,1.792-4,4v79.08  L27.676,69.504c-1.688-1.42-4.216-1.195-5.636,0.496c-1.42,1.688-1.2,4.212,0.492,5.632l21.98,18.472  c0.708,1.117,1.9,1.896,3.32,1.896c0.068,0,0.12-0.032,0.184-0.032c0.072,0,0.14,0.032,0.216,0.032c0.924,0,1.852-0.32,2.596-0.96  l22.664-19.429C75.172,74.168,75.368,71.645,73.928,69.968L73.928,69.968z"></path></svg></g></g></svg>